# xmcd
#
# Track frame offsets:
#	150
#	21107
#	46210
#
# Disc length: 833 seconds
#
# Revision: 2
# Processed by: cddbd v1.5.2PL0 Copyright (c) Steve Scherf et al.
# Submitted via: audiograbber 1.83.01
#
DISCID=1a033f03
DTITLE=McKnight, Brian - You should be mine (don't waste your time)
DYEAR=1998
DGENRE=Soul
TTITLE0=You should be mine (don't waste your time) (Radio edit with rap)
TTITLE1=You should be mine (don't waste your time) (Mickey P. remix)
TTITLE2=Anytime (Acoustic)
EXTD=
EXTT0=
EXTT1=
EXTT2=
PLAYORDER=
